<svg width="199" height="56" viewBox="0 0 199 56" fill="none" xmlns="http://www.w3.org/2000/svg">
<g clip-path="url(#clip0_294_289)">
<path d="M147.477 42.6093C140.706 42.6093 136.5 38.6876 136.5 32.3663C136.5 25.8058 140.382 21.7242 146.633 21.7242H147.157C147.941 21.7242 149.021 21.7498 150.495 21.934V14.0151H154.911V41.8956C154.911 41.8956 150.715 42.6093 147.477 42.6093ZM147.437 25.2008C143.16 25.2008 141.08 27.5096 141.08 32.2563C141.08 36.5182 143.59 39.1672 147.621 39.1672C148.396 39.1672 149.284 39.1161 150.494 39.0125V25.4848C149.285 25.2903 148.311 25.2008 147.437 25.2008ZM86.9948 41.9697L75.0672 21.155L75.0634 41.9697H70.9062V15.6191H76.7262L88.6538 36.2483L88.6487 15.6191H92.8607V41.9697H86.9948ZM124.988 42.3752C122.979 42.3752 120.886 42.1501 118.393 41.6704L118.123 41.6193V37.938L118.517 38.0225C120.715 38.4919 122.614 38.8922 124.513 38.8922C126.047 38.8922 129.619 38.6518 129.619 36.3942C129.619 34.5011 127.151 34.0253 125.168 33.6454L125.043 33.6198C124.672 33.5507 124.323 33.4804 124.028 33.4062C121.12 32.6515 118.017 31.517 118.017 27.6196C118.017 23.8181 121.025 21.6398 126.272 21.6398C128.79 21.6398 130.618 21.9084 132.088 22.1284L132.802 22.2333V25.8058L132.422 25.7367C130.759 25.431 128.81 25.1164 126.936 25.1164C124.852 25.1164 122.38 25.5065 122.38 27.3599C122.38 28.8987 124.403 29.3387 126.746 29.849C130.023 30.5577 134.086 31.4479 134.086 35.9196C134.086 40.0217 130.773 42.3752 124.988 42.3752ZM167.307 42.3752C162.736 42.3752 158.504 41.5694 158.504 35.7342C158.504 29.3834 165.049 29.3834 168.962 29.3834C169.351 29.3834 171.19 29.4691 171.754 29.4934C171.749 25.9312 171.704 25.0818 166.538 25.0818C164.49 25.0818 162.216 25.486 160.208 25.8467L159.824 25.9158V22.3983L160.082 22.3433C162.41 21.87 164.655 21.6398 166.943 21.6398C171.95 21.6398 176.191 22.1438 176.191 28.3551V41.9007L175.887 41.9352C172.419 42.324 169.666 42.3752 167.308 42.3752H167.307ZM168.852 32.5262C165.078 32.5262 162.74 33.0813 162.74 35.8442C162.74 39.0419 165.723 39.3067 168.522 39.3067C169.565 39.3067 171.444 39.1724 172.019 39.1314V32.6362C171.21 32.6016 169.106 32.5262 168.852 32.5262ZM105.351 42.3752C100.774 42.3752 96.5433 41.5694 96.5433 35.7342C96.5433 29.3834 103.088 29.3834 107 29.3834C107.39 29.3834 109.233 29.4691 109.798 29.4934C109.793 25.9312 109.743 25.0818 104.577 25.0818C102.528 25.0818 100.254 25.486 98.2457 25.8467L97.862 25.9158V22.3983L98.1268 22.3433C100.382 21.8769 102.679 21.6412 104.983 21.6398C109.988 21.6398 114.23 22.1438 114.23 28.3551V41.9007L113.925 41.9352C110.458 42.324 107.705 42.3752 105.351 42.3752ZM106.89 32.5262C103.118 32.5262 100.785 33.0813 100.785 35.8442C100.785 39.0419 103.762 39.3067 106.561 39.3067C107.61 39.3067 109.489 39.1724 110.063 39.1314V32.6362C109.248 32.6016 107.146 32.5262 106.891 32.5262" fill="white"/>
<mask id="mask0_294_289" style="mask-type:alpha" maskUnits="userSpaceOnUse" x="179" y="20" width="20" height="32">
<path d="M179.074 20.4453H198.295V51.1436H179.074V20.4453Z" fill="white"/>
</mask>
<g mask="url(#mask0_294_289)">
<path d="M193.774 50.9233V42.2791C192.051 42.5196 191.137 42.5196 190.397 42.5196C188.647 42.5196 186.704 42.1397 185.2 41.5053C181.832 40.1047 179.824 36.5488 179.824 31.9863C179.824 29.7095 180.379 25.546 184.091 23.3025C185.955 22.1897 188.154 21.7139 191.461 21.7139C192.645 21.7139 194.243 21.8034 195.787 21.8929L198.296 22.0234V48.9202L193.774 50.9233ZM191.131 25.1917C186.644 25.1904 184.37 27.48 184.37 31.9863C184.37 37.7882 187.762 39.0072 190.615 39.0072C191.309 39.0072 192.089 39.0072 193.818 38.7872V25.3171C192.464 25.2275 191.839 25.1917 191.13 25.1917H191.131Z" fill="white"/>
</g>
<mask id="mask1_294_289" style="mask-type:alpha" maskUnits="userSpaceOnUse" x="33" y="0" width="35" height="43">
<path d="M33.2539 0H67.7895V42.1897H33.2539V0Z" fill="white"/>
</mask>
<g mask="url(#mask1_294_289)">
<path d="M51.1758 0L36.5711 40.1252C36.3905 40.6193 36.0745 41.0525 35.6591 41.3753C35.2438 41.6981 34.746 41.8974 34.2227 41.9505V41.9697H49.6613C50.8701 41.9697 51.9049 41.2009 52.2899 40.1265L66.8997 0H51.1758Z" fill="white"/>
</g>
<path d="M32.9662 41.361C33.8616 41.361 34.6457 40.9158 35.1253 40.2418C35.1752 40.1714 35.3504 39.9258 35.4745 39.592L40.8314 24.867L37.6976 16.2677C37.515 15.8322 37.2194 15.4535 36.8412 15.1708C36.4631 14.888 36.0162 14.7115 35.5469 14.6596C35.0776 14.6077 34.6029 14.6822 34.1721 14.8754C33.7413 15.0687 33.37 15.3736 33.0967 15.7586C33.0455 15.829 32.837 16.1423 32.7475 16.4084L27.3906 31.1282L30.5385 39.7621C30.7427 40.2367 31.0814 40.641 31.5129 40.9251C31.9443 41.2093 32.4496 41.3608 32.9662 41.361Z" fill="white"/>
<mask id="mask2_294_289" style="mask-type:alpha" maskUnits="userSpaceOnUse" x="0" y="12" width="35" height="44">
<path d="M0 12.7705H34.5356V56.0001H0V12.7705Z" fill="white"/>
</mask>
<g mask="url(#mask2_294_289)">
<path d="M34.1128 14.0288H18.504C17.2952 14.0288 16.2605 14.7937 15.8703 15.8733L1.26562 55.9985H16.9895L31.5955 15.8745C31.785 15.3525 32.1256 14.8987 32.5739 14.5709C33.0222 14.2431 33.5579 14.0562 34.1128 14.0339V14.0288Z" fill="white"/>
</g>
</g>
<defs>
<clipPath id="clip0_294_289">
<rect width="199" height="56" fill="white"/>
</clipPath>
</defs>
</svg>
