<svg width="16" height="16" viewBox="0 0 16 16" fill="none" xmlns="http://www.w3.org/2000/svg">
<path d="M7.99956 12.1834L5.23289 13.85C5.11067 13.9278 4.98289 13.9612 4.84956 13.95C4.71623 13.9389 4.59956 13.8945 4.49956 13.8167C4.39956 13.7389 4.32178 13.6418 4.26623 13.5254C4.21067 13.4085 4.19956 13.2778 4.23289 13.1334L4.96623 9.98338L2.51623 7.86672C2.40511 7.76672 2.33578 7.65272 2.30823 7.52472C2.28023 7.39716 2.28845 7.27227 2.33289 7.15005C2.37734 7.02783 2.444 6.92783 2.53289 6.85005C2.62178 6.77227 2.744 6.72227 2.89956 6.70005L6.13289 6.41672L7.38289 3.45005C7.43845 3.31672 7.52467 3.21672 7.64156 3.15005C7.758 3.08338 7.87734 3.05005 7.99956 3.05005C8.12178 3.05005 8.24134 3.08338 8.35823 3.15005C8.47467 3.21672 8.56067 3.31672 8.61623 3.45005L9.86623 6.41672L13.0996 6.70005C13.2551 6.72227 13.3773 6.77227 13.4662 6.85005C13.5551 6.92783 13.6218 7.02783 13.6662 7.15005C13.7107 7.27227 13.7191 7.39716 13.6916 7.52472C13.6636 7.65272 13.594 7.76672 13.4829 7.86672L11.0329 9.98338L11.7662 13.1334C11.7996 13.2778 11.7884 13.4085 11.7329 13.5254C11.6773 13.6418 11.5996 13.7389 11.4996 13.8167C11.3996 13.8945 11.2829 13.9389 11.1496 13.95C11.0162 13.9612 10.8884 13.9278 10.7662 13.85L7.99956 12.1834Z" fill="#0E8B00"/>
</svg>
