<svg width="208" height="175" viewBox="0 0 208 175" fill="none" xmlns="http://www.w3.org/2000/svg">
<g clip-path="url(#clip0_294_249)">
<path d="M19.5422 172.607H188.214C188.842 172.607 189.366 173.117 189.366 173.768V173.856C189.366 174.49 188.86 175.017 188.214 175.017H19.5422C18.9141 175.017 18.3906 174.507 18.3906 173.856V173.768C18.3906 173.117 18.9141 172.607 19.5422 172.607Z" fill="url(#paint0_linear_294_249)"/>
<path d="M128.61 123.852L111.04 123.007C97.3952 122.356 84.6231 116.039 75.7594 105.553L49.5697 74.568C45.417 69.659 38.5948 68.0755 32.7322 70.6444C24.1651 74.3921 21.2862 85.213 26.8521 92.7789L43.9339 116.075C56.2524 132.878 74.1891 144.614 94.4116 149.118L126.22 156.209" fill="url(#paint1_radial_294_249)"/>
<path d="M44.4751 141.605L8.2875 92.2508C2.73897 84.6849 5.61792 73.864 14.1675 70.1163C20.0301 67.5474 26.8698 69.1486 31.0051 74.04L57.8578 105.817C69.0247 119.03 84.92 127.247 102.072 128.672L111.86 129.499" fill="url(#paint2_radial_294_249)"/>
<path d="M91.568 18.5277C100.013 7.72432 112.942 0.580747 127.651 0.0353021C127.93 0.0177071 128.209 0.0177071 128.488 0.0177071C161.57 -0.668499 183.503 34.4687 169.055 64.5034C157.26 89.0309 140.353 110.69 119.468 128.021L95.8602 147.622L70.9965 129.658C49.0118 113.769 30.7086 93.2889 17.3084 69.6236C0.907105 40.627 20.4665 4.09975 53.5309 2.53379C53.81 2.5162 54.0892 2.5162 54.3684 2.4986C69.0598 2.05873 82.4251 8.32255 91.568 18.5277Z" fill="url(#paint3_linear_294_249)"/>
<path d="M91.568 18.5277C100.013 7.72432 112.942 0.580747 127.651 0.0353021C127.93 0.0177071 128.209 0.0177071 128.488 0.0177071C161.57 -0.668499 183.503 34.4687 169.055 64.5034C157.26 89.0309 140.353 110.69 119.468 128.021L95.8602 147.622L70.9965 129.658C49.0118 113.769 30.7086 93.2889 17.3084 69.6236C0.907105 40.627 20.4665 4.09975 53.5309 2.53379C53.81 2.5162 54.0892 2.5162 54.3684 2.4986C69.0598 2.05873 82.4251 8.32255 91.568 18.5277Z" fill="url(#paint4_radial_294_249)"/>
<mask id="mask0_294_249" style="mask-type:luminance" maskUnits="userSpaceOnUse" x="4" y="66" width="122" height="80">
<path d="M125.592 66.1396H4.13477V145.44H125.592V66.1396Z" fill="white"/>
</mask>
<g mask="url(#mask0_294_249)">
<path d="M92.0565 19.0729C91.8995 18.8969 91.7424 18.7034 91.5854 18.5274C82.4426 8.30472 69.0772 2.05849 54.3684 2.49836C54.0892 2.49836 53.81 2.51596 53.5309 2.53355C20.4665 4.09951 0.907105 40.6268 17.3084 69.6233C30.7086 93.3062 49.0118 113.787 70.9965 129.658L94.4295 146.584H97.1165L103.956 140.901V49.6178C103.607 37.8819 99.1579 27.2545 92.0565 19.0729Z" fill="url(#paint5_radial_294_249)"/>
</g>
<mask id="mask1_294_249" style="mask-type:luminance" maskUnits="userSpaceOnUse" x="-8" y="-1" width="121" height="68">
<path d="M112.367 -0.210938H-7.41504V66.1399H112.367V-0.210938Z" fill="white"/>
</mask>
<g mask="url(#mask1_294_249)">
<path d="M92.0575 19.0734C91.9004 18.8974 91.7434 18.7039 91.5864 18.5279C82.4435 8.30521 69.0782 2.05898 54.3694 2.49885C54.0902 2.49885 53.811 2.51645 53.5319 2.53404C20.4675 4.1 0.908082 40.6273 17.3094 69.6238C30.7096 93.3067 49.0128 113.787 70.9975 129.658L94.4304 146.584H97.1175L103.957 140.901V49.6183C103.608 37.8824 99.1589 27.255 92.0575 19.0734Z" fill="url(#paint6_radial_294_249)"/>
</g>
<path d="M91.568 18.5277C100.013 7.72432 112.942 0.580747 127.651 0.0353021C127.93 0.0177071 128.209 0.0177071 128.488 0.0177071C161.57 -0.668499 183.503 34.4687 169.055 64.5034C157.26 89.0309 140.353 110.69 119.468 128.021L95.8602 147.622L70.9965 129.658C49.0118 113.769 30.7086 93.2889 17.3084 69.6236C0.907105 40.627 20.4665 4.09975 53.5309 2.53379C53.81 2.5162 54.0892 2.5162 54.3684 2.4986C69.0598 2.05873 82.4251 8.32255 91.568 18.5277Z" fill="url(#paint7_radial_294_249)"/>
<path d="M116.03 129.957L91.8471 127.863C72.7413 126.209 54.9791 117.306 42.1546 102.931L26.713 85.6351C22.6824 81.1132 16.2964 79.5472 10.6432 81.6762C0.837299 85.3712 -3.05365 97.2478 2.63446 106.116L5.2168 110.145C21.8973 136.115 46.3073 156.05 74.9573 167.118C88.5145 172.343 102.892 175.035 117.391 175.035H156.562C185.858 175.035 209.239 150.385 207.93 120.878C206.866 96.8783 190.761 76.2217 167.886 69.5356C143.651 62.4448 118.438 59.4185 93.243 60.5622L73.3346 61.4595C66.9485 61.741 61.906 67.0547 61.906 73.5121C61.906 87.9752 73.5265 99.6759 87.8515 99.6759H89.7533C102.456 99.6759 115.123 100.503 127.703 102.139C121.998 111.13 117.932 121.089 115.681 131.54L115.437 132.667" fill="url(#paint8_radial_294_249)"/>
<path d="M127.721 102.104C138.905 103.564 150.02 105.658 160.995 108.403L166.805 107.33L176.75 72.9491C173.941 71.5767 170.993 70.4154 167.904 69.5181C143.669 62.4273 118.456 59.4009 93.2608 60.5446L73.3524 61.442C66.9664 61.7235 61.9238 67.0372 61.9238 73.4945C61.9238 87.9576 73.5443 99.6583 87.8693 99.6583H89.7712C102.473 99.6407 115.158 100.468 127.721 102.104Z" fill="url(#paint9_radial_294_249)"/>
<path opacity="0.5" d="M81.6922 83.8052C87.6595 83.8052 92.4926 78.5443 92.4926 72.0517C92.4926 66.8612 89.3868 62.4448 85.0946 60.8965L77.4523 61.2484C73.5962 63.0431 70.9092 67.2131 70.9092 72.0693C70.9092 78.5443 75.7423 83.8052 81.6922 83.8052Z" fill="url(#paint10_radial_294_249)"/>
<path opacity="0.5" d="M81.6922 83.8052C87.6595 83.8052 92.4926 78.5443 92.4926 72.0517C92.4926 66.8612 89.3868 62.4448 85.0946 60.8965L77.4523 61.2484C73.5962 63.0431 70.9092 67.2131 70.9092 72.0693C70.9092 78.5443 75.7423 83.8052 81.6922 83.8052Z" fill="url(#paint11_radial_294_249)"/>
<path opacity="0.5" d="M81.6922 83.8052C87.6595 83.8052 92.4926 78.5443 92.4926 72.0517C92.4926 66.8612 89.3868 62.4448 85.0946 60.8965L77.4523 61.2484C73.5962 63.0431 70.9092 67.2131 70.9092 72.0693C70.9092 78.5443 75.7423 83.8052 81.6922 83.8052Z" fill="url(#paint12_radial_294_249)"/>
<path opacity="0.5" d="M81.6922 82.9606C75.847 82.9606 71.0837 77.8933 70.9092 71.5767C70.9092 71.735 70.9092 71.8934 70.9092 72.0517C70.9092 78.5443 75.7423 83.8052 81.7096 83.8052C87.6769 83.8052 92.5101 78.5443 92.5101 72.0517C92.5101 71.8934 92.5101 71.735 92.5101 71.5767C92.3007 77.9109 87.5373 82.9606 81.6922 82.9606Z" fill="url(#paint13_radial_294_249)"/>
<path d="M160.995 108.403C150.02 105.658 138.905 103.564 127.721 102.104L125.749 105.377C123.481 109.318 121.509 113.418 119.869 117.658C132.781 117.306 160.995 108.403 160.995 108.403Z" fill="url(#paint14_radial_294_249)"/>
<path d="M116.03 129.957L91.8467 127.863C89.0201 127.617 86.2109 127.212 83.4541 126.649V147.622H113.709L114.32 140.831C114.599 137.699 115.07 134.584 115.716 131.523L115.472 132.649L116.03 129.957Z" fill="url(#paint15_radial_294_249)"/>
<path d="M115.698 131.505C115.803 131.048 115.908 130.59 116.012 130.133C115.908 130.59 115.803 131.048 115.698 131.505Z" fill="url(#paint16_radial_294_249)"/>
<path d="M151.084 23.9468H151.102C147.577 24.2987 144.838 27.2019 144.663 30.7737L144.349 37.5478L144.035 30.7737C143.878 27.2019 141.121 24.2987 137.597 23.9468H137.614C141.139 23.5949 143.878 20.7093 144.053 17.1375L144.349 11.1904L144.646 17.1375C144.82 20.6917 147.56 23.5949 151.084 23.9468Z" fill="white"/>
<path d="M181.321 10.8735C178.791 11.1199 176.82 13.2137 176.715 15.7826L176.488 20.6564L176.261 15.7826C176.139 13.2137 174.168 11.1199 171.638 10.8735H171.655C174.185 10.6272 176.157 8.551 176.279 5.98213L176.488 1.70654L176.698 5.98213C176.82 8.551 178.791 10.6272 181.321 10.8735Z" fill="#FFD500"/>
</g>
<defs>
<linearGradient id="paint0_linear_294_249" x1="18.3991" y1="173.807" x2="189.361" y2="173.807" gradientUnits="userSpaceOnUse">
<stop stop-color="#C5D1C3" stop-opacity="0"/>
<stop offset="0.3094" stop-color="#C5D1C3"/>
<stop offset="0.3737" stop-color="#C5D1C3"/>
<stop offset="0.7504" stop-color="#C5D1C3"/>
<stop offset="1" stop-color="#C5D1C3" stop-opacity="0.0142853"/>
</linearGradient>
<radialGradient id="paint1_radial_294_249" cx="0" cy="0" r="1" gradientUnits="userSpaceOnUse" gradientTransform="translate(102.446 86.0755) rotate(35.2287) scale(97.687 64.4614)">
<stop offset="0.6772" stop-color="#9B8084"/>
<stop offset="0.7646" stop-color="#8F766F"/>
<stop offset="0.9439" stop-color="#6F5D3A"/>
<stop offset="1" stop-color="#645528"/>
</radialGradient>
<radialGradient id="paint2_radial_294_249" cx="0" cy="0" r="1" gradientUnits="userSpaceOnUse" gradientTransform="translate(69.1278 91.5312) rotate(44.4094) scale(68.1926 51.3492)">
<stop offset="0.6772" stop-color="#9B8084"/>
<stop offset="0.7646" stop-color="#8F766F"/>
<stop offset="0.9439" stop-color="#6F5D3A"/>
<stop offset="1" stop-color="#645528"/>
</radialGradient>
<linearGradient id="paint3_linear_294_249" x1="92.491" y1="-15.6337" x2="92.491" y2="147.915" gradientUnits="userSpaceOnUse">
<stop offset="0.5" stop-color="#FFD500"/>
</linearGradient>
<radialGradient id="paint4_radial_294_249" cx="0" cy="0" r="1" gradientUnits="userSpaceOnUse" gradientTransform="translate(152.312 73.3447) rotate(123.017) scale(107.964 83.283)">
<stop offset="0.6771" stop-color="#005BBB" stop-opacity="0"/>
<stop offset="0.7241" stop-color="#0051A6" stop-opacity="0.0728396"/>
<stop offset="0.8212" stop-color="#003770" stop-opacity="0.2232"/>
<stop offset="0.9588" stop-color="#000D1B" stop-opacity="0.4364"/>
<stop offset="0.9998" stop-opacity="0.5"/>
</radialGradient>
<radialGradient id="paint5_radial_294_249" cx="0" cy="0" r="1" gradientUnits="userSpaceOnUse" gradientTransform="translate(96.5229 69.3554) rotate(49.2801) scale(99.0522 80.5224)">
<stop offset="0.6756" stop-color="#FFD500"/>
<stop offset="1" stop-color="#FFD500" stop-opacity="0"/>
</radialGradient>
<radialGradient id="paint6_radial_294_249" cx="0" cy="0" r="1" gradientUnits="userSpaceOnUse" gradientTransform="translate(96.5238 69.3559) rotate(49.2801) scale(99.0522 80.5224)">
<stop offset="0.6755" stop-color="#005BBB"/>
<stop offset="1" stop-color="#005BBB" stop-opacity="0"/>
</radialGradient>
<radialGradient id="paint7_radial_294_249" cx="0" cy="0" r="1" gradientUnits="userSpaceOnUse" gradientTransform="translate(124.424 86.708) rotate(-174.538) scale(61.2656 25.5836)">
<stop offset="0.6769" stop-color="#FFA000" stop-opacity="0.5"/>
<stop offset="1" stop-color="#FFA000" stop-opacity="0"/>
</radialGradient>
<radialGradient id="paint8_radial_294_249" cx="0" cy="0" r="1" gradientUnits="userSpaceOnUse" gradientTransform="translate(109.301 80.1048) rotate(16.1741) scale(120.257 87.3513)">
<stop offset="0.6772" stop-color="#9B8084"/>
<stop offset="0.7646" stop-color="#8F766F"/>
<stop offset="0.9439" stop-color="#6F5D3A"/>
<stop offset="1" stop-color="#645528"/>
</radialGradient>
<radialGradient id="paint9_radial_294_249" cx="0" cy="0" r="1" gradientUnits="userSpaceOnUse" gradientTransform="translate(141.271 72.4975) rotate(16.1741) scale(78.9908 50.4955)">
<stop offset="0.6772" stop-color="#9B8084"/>
<stop offset="0.7646" stop-color="#8F766F"/>
<stop offset="0.9439" stop-color="#6F5D3A"/>
<stop offset="1" stop-color="#645528"/>
</radialGradient>
<radialGradient id="paint10_radial_294_249" cx="0" cy="0" r="1" gradientUnits="userSpaceOnUse" gradientTransform="translate(83.7273 71.8441) scale(15.9643 16.0986)">
<stop offset="0.426" stop-color="#E4EBE4"/>
<stop offset="1" stop-color="#D5E0D5" stop-opacity="0"/>
</radialGradient>
<radialGradient id="paint11_radial_294_249" cx="0" cy="0" r="1" gradientUnits="userSpaceOnUse" gradientTransform="translate(83.7273 71.8441) scale(13.0044 13.1138)">
<stop offset="0.7516" stop-color="#D5E0D5" stop-opacity="0"/>
<stop offset="1" stop-color="#E4EBE4"/>
</radialGradient>
<radialGradient id="paint12_radial_294_249" cx="0" cy="0" r="1" gradientUnits="userSpaceOnUse" gradientTransform="translate(92.575 71.5381) scale(8.86192 11.9901)">
<stop offset="0.7516" stop-color="#E4EBE4"/>
<stop offset="1" stop-color="#D5E0D5" stop-opacity="0"/>
</radialGradient>
<radialGradient id="paint13_radial_294_249" cx="0" cy="0" r="1" gradientUnits="userSpaceOnUse" gradientTransform="translate(79.3524 81.2671) scale(10.4102 14.0849)">
<stop offset="0.426" stop-color="#E4EBE4"/>
<stop offset="1" stop-color="#D5E0D5" stop-opacity="0"/>
</radialGradient>
<radialGradient id="paint14_radial_294_249" cx="0" cy="0" r="1" gradientUnits="userSpaceOnUse" gradientTransform="translate(146.988 129.79) rotate(-1.73656) scale(44.4514 34.4157)">
<stop offset="0.6772" stop-color="#9B8084"/>
<stop offset="0.7646" stop-color="#8F766F"/>
<stop offset="0.9439" stop-color="#6F5D3A"/>
<stop offset="1" stop-color="#645528"/>
</radialGradient>
<radialGradient id="paint15_radial_294_249" cx="0" cy="0" r="1" gradientUnits="userSpaceOnUse" gradientTransform="translate(88.1135 144.398) rotate(16.1741) scale(38.3575 29.6618)">
<stop offset="0.7062" stop-color="#645528" stop-opacity="0"/>
<stop offset="1" stop-color="#645528"/>
</radialGradient>
<radialGradient id="paint16_radial_294_249" cx="0" cy="0" r="1" gradientUnits="userSpaceOnUse" gradientTransform="translate(115.874 130.451) rotate(16.1738) scale(1.03105 0.797298)">
<stop offset="0.6772" stop-color="#9B8084"/>
<stop offset="0.7646" stop-color="#8F766F"/>
<stop offset="0.9439" stop-color="#6F5D3A"/>
<stop offset="1" stop-color="#645528"/>
</radialGradient>
<clipPath id="clip0_294_249">
<rect width="208" height="175" fill="white"/>
</clipPath>
</defs>
</svg>
